<svg xmlns="http://www.w3.org/2000/svg" version="1.1" xmlns:xlink="http://www.w3.org/1999/xlink" xmlns:svgjs="http://svgjs.dev/svgjs" width="2000" height="459" viewBox="0 0 2000 459"><g transform="matrix(1,0,0,1,13.707599135359715,4.015273327421227)"><svg viewBox="0 0 396 91" data-background-color="#ffffff" preserveAspectRatio="xMidYMid meet" height="459" width="2000" xmlns="http://www.w3.org/2000/svg" xmlns:xlink="http://www.w3.org/1999/xlink"><g id="tight-bounds" transform="matrix(1,0,0,1,0.2400000000000091,0.03763400927795146)"><svg viewBox="0 0 395.52 90.9247319814441" height="90.9247319814441" width="395.52"><g><svg viewBox="0 0 584.5960593658806 134.39077673758868" height="90.9247319814441" width="395.52"><g><rect width="8.769536134209362" height="116.69242553191489" x="157.34962235677764" y="8.849175602836894" fill="#ffffff" opacity="1" stroke-width="0" stroke="transparent" fill-opacity="1" class="rect-yte-0" data-fill-palette-color="primary" rx="1%" id="yte-0" data-palette-color="#000000"></rect></g><g transform="matrix(1,0,0,1,189.07605936588064,18.573544397163133)"><svg viewBox="0 0 395.52 97.24368794326242" height="97.24368794326242" width="395.52"><g id="textblocktransform"><svg viewBox="0 0 395.52 97.24368794326242" height="97.24368794326242" width="395.52" id="textblock"><g><svg viewBox="0 0 395.52 97.24368794326242" height="97.24368794326242" width="395.52"><g transform="matrix(1,0,0,1,0,0)"><svg width="395.52" viewBox="2.25 -25.5 105.74 26" height="97.24368794326242" data-palette-color="#000000"><path d="M11.5 0.5L11.5 0.5Q8.5 0.5 6.45-0.73 4.4-1.95 3.33-4.8 2.25-7.65 2.25-12.5L2.25-12.5Q2.25-17.4 3.33-20.23 4.4-23.05 6.45-24.28 8.5-25.5 11.5-25.5L11.5-25.5Q14.5-25.5 16.57-24.28 18.65-23.05 19.7-20.23 20.75-17.4 20.75-12.5L20.75-12.5Q20.75-7.65 19.7-4.8 18.65-1.95 16.57-0.73 14.5 0.5 11.5 0.5ZM11.5-2.25L11.5-2.25Q12.75-2.25 13.83-3.15 14.9-4.05 15.58-6.28 16.25-8.5 16.25-12.5L16.25-12.5Q16.25-16.5 15.58-18.73 14.9-20.95 13.83-21.85 12.75-22.75 11.5-22.75L11.5-22.75Q10.25-22.75 9.18-21.85 8.1-20.95 7.43-18.73 6.75-16.5 6.75-12.5L6.75-12.5Q6.75-8.5 7.43-6.28 8.1-4.05 9.18-3.15 10.25-2.25 11.5-2.25ZM40.25 0L24 0 24-3 35.25-21.75 24.5-21.75 24.5-25 40.5-25 40.5-22 29.3-3.25 40.25-3.25 40.25 0ZM53 0.5L53 0.5Q50 0.5 47.95-0.73 45.9-1.95 44.82-4.8 43.75-7.65 43.75-12.5L43.75-12.5Q43.75-17.4 44.82-20.23 45.9-23.05 47.95-24.28 50-25.5 53-25.5L53-25.5Q56-25.5 58.07-24.28 60.15-23.05 61.2-20.23 62.25-17.4 62.25-12.5L62.25-12.5Q62.25-7.65 61.2-4.8 60.15-1.95 58.07-0.73 56 0.5 53 0.5ZM53-2.25L53-2.25Q54.25-2.25 55.32-3.15 56.4-4.05 57.07-6.28 57.75-8.5 57.75-12.5L57.75-12.5Q57.75-16.5 57.07-18.73 56.4-20.95 55.32-21.85 54.25-22.75 53-22.75L53-22.75Q51.75-22.75 50.67-21.85 49.6-20.95 48.92-18.73 48.25-16.5 48.25-12.5L48.25-12.5Q48.25-8.5 48.92-6.28 49.6-4.05 50.67-3.15 51.75-2.25 53-2.25ZM72.24 0L67.74 0 67.74-25 71.49-25 71.74-23.5 71.99-23.5Q72.94-24.45 74.34-24.98 75.74-25.5 77.24-25.5L77.24-25.5Q79.64-25.5 81.37-24.88 83.09-24.25 84.04-22.63 84.99-21 84.99-18L84.99-18 84.99 0 80.49 0 80.49-18Q80.49-20.65 79.14-21.58 77.79-22.5 75.74-22.5L75.74-22.5Q74.79-22.5 73.79-22.2 72.79-21.9 72.24-21.5L72.24-21.5 72.24 0ZM100.99 0.5L100.99 0.5Q97.24 0.5 94.94-0.68 92.64-1.85 91.57-4.67 90.49-7.5 90.49-12.5L90.49-12.5Q90.49-17.5 91.49-20.33 92.49-23.15 94.44-24.33 96.39-25.5 99.24-25.5L99.24-25.5Q102.14-25.5 104.07-24.33 105.99-23.15 106.99-20.33 107.99-17.5 107.99-12.5L107.99-12.5 107.99-11 94.99-11Q94.99-6.15 96.62-4.33 98.24-2.5 101.99-2.5L101.99-2.5 106.99-2.5 106.99-0.5Q105.89-0.15 104.19 0.18 102.49 0.5 100.99 0.5ZM94.99-14L94.99-14 103.49-14Q103.49-17.4 102.89-19.3 102.29-21.2 101.34-21.98 100.39-22.75 99.24-22.75L99.24-22.75Q98.14-22.75 97.17-21.98 96.19-21.2 95.59-19.3 94.99-17.4 94.99-14Z" opacity="1" transform="matrix(1,0,0,1,0,0)" fill="#ffffff" class="wordmark-text-0" data-fill-palette-color="primary" id="text-0"></path></svg></g></svg></g></svg></g></svg></g><g><svg viewBox="0 0 134.39272148188402 134.39077673758868" height="134.39077673758868" width="134.39272148188402"><g><svg xmlns="http://www.w3.org/2000/svg" viewBox="2.145610926999524 2.039985707308887 59.85821966534587 59.85735348055595" x="0" y="0" height="134.39077673758868" width="134.39272148188402" class="icon-icon-0" data-fill-palette-color="accent" id="icon-0"><g fill="#0191da" data-fill-palette-color="accent"><g fill="#0191da" data-fill-palette-color="accent"><path d="M61.048 24.479A1 1 0 1 0 59.112 24.979 28.029 28.029 0 1 1 47.972 9.007 1 1 0 0 0 49.114 7.366 29.927 29.927 0 1 0 61.048 24.479" fill="#ffffff" data-fill-palette-color="accent"></path><path d="M57.654 20.765A1 1 0 1 0 59.484 19.965Q59.269 19.476 59.038 18.996A1 1 0 1 0 57.238 19.866Q57.454 20.308 57.654 20.765" fill="#ffffff" data-fill-palette-color="accent"></path><path d="M55.259 16.41A1 1 0 1 0 56.917 15.293C56.717 14.998 56.517 14.708 56.308 14.42A1 1 0 1 0 54.687 15.592Q54.978 16 55.259 16.41" fill="#ffffff" data-fill-palette-color="accent"></path><path d="M52.129 12.545A1 1 0 1 0 53.566 11.154Q53.196 10.771 52.813 10.402A1 1 0 1 0 51.423 11.84Q51.781 12.186 52.129 12.545" fill="#ffffff" data-fill-palette-color="accent"></path><path d="M7 32A24.8 24.8 0 0 0 9.382 42.654 1 1 0 0 0 11.19 41.8 22.974 22.974 0 0 1 16.928 14.649L19.845 17.3 19.051 19.682A1 1 0 0 0 19.293 20.705L23.893 25.305 23.163 28.223 20.684 29.049A1 1 0 0 0 20 30V35A1 1 0 0 0 21 36H25A1 1 0 0 0 25 34H22V30.721L24.316 29.949A1 1 0 0 0 24.97 29.243L25.97 25.243A1 1 0 0 0 25.707 24.293L21.144 19.73 21.949 17.316A1 1 0 0 0 21.673 16.26L18.512 13.387A23 23 0 0 1 22.5 11.063L23.017 14.163A1 1 0 0 0 23.171 14.553L25.171 17.553A1 1 0 0 0 26 18H27.719L27.03 20.757A1 1 0 0 0 27.293 21.707L31.293 25.707A1 1 0 0 0 32.707 25.707L37.707 20.707A1 1 0 0 0 37.832 19.445L36 16.7V12A1 1 0 0 0 34 12V17A1 1 0 0 0 34.168 17.555L35.713 19.873 32 23.586 29.107 20.693 29.97 17.243A1 1 0 0 0 29 16H26.535L24.951 13.624 24.4 10.3A22.94 22.94 0 0 1 43.937 12.352L39.637 14.074A1 1 0 0 0 39.079 15.374L40.879 19.885 37.171 25.447A1 1 0 0 0 37.146 26.517L39.59 30.59 36.553 32.1A1 1 0 0 0 36.014 33.16L36.948 38.769 35.168 41.44A1 1 0 0 0 35.758 42.965L42.448 44.638 40.148 48.48A1 1 0 0 0 40.086 49.389L41.586 52.895A22.8 22.8 0 0 1 34.167 54.895L36.784 51.625A1 1 0 0 0 37 51V47A1 1 0 0 0 36.242 46.03L33 45.219V42A1 1 0 0 0 32 41H27A1 1 0 0 0 26.143 41.485L23.143 46.485A1 1 0 0 0 23.071 47.372L24.961 52.095 24.626 53.772A23.05 23.05 0 0 1 16.226 48.716L20.396 46.916A1 1 0 0 0 21 46V41.677L25.372 39.929A1 1 0 1 0 24.628 38.071L19.628 40.071A1 1 0 0 0 19 41V45.342L14.735 47.181A23 23 0 0 1 13.112 45.117 1 1 0 0 0 11.47 46.26 25 25 0 0 0 54.618 21.346 1 1 0 1 0 52.81 22.2 22.98 22.98 0 0 1 54.179 38.078L52.49 37.128A1 1 0 0 0 51.29 37.293L48.29 40.293A1 1 0 0 0 48.003 41.11L48.74 47.745A23.1 23.1 0 0 1 43.363 51.983L42.12 49.076 44.857 44.515A1 1 0 0 0 44.242 43.03L37.619 41.374 38.832 39.555A1 1 0 0 0 38.986 38.835L38.107 33.564 41.447 31.895A1 1 0 0 0 41.857 30.485L39.183 26.028 42.832 20.555A1 1 0 0 0 42.932 19.628L41.3 15.557 45.922 13.708A23 23 0 0 1 50.888 18.883 1 1 0 0 0 52.53 17.74 25 25 0 0 0 7 32M50.047 41.367L52.171 39.243 53.554 40.021A23 23 0 0 1 50.519 45.621ZM26.929 51.628L25.113 47.089 27.566 43H31V46A1 1 0 0 0 31.757 46.97L35 47.781V50.649L31.531 54.986A23 23 0 0 1 26.552 54.341L26.98 52.2A1 1 0 0 0 26.929 51.628" fill="#ffffff" data-fill-palette-color="accent"></path></g></g></svg></g></svg></g></svg></g><defs></defs></svg><rect width="395.52" height="90.9247319814441" fill="none" stroke="none" visibility="hidden"></rect></g></svg></g></svg>